<svg width="70" height="50" viewBox="0 0 70 50" fill="none" xmlns="http://www.w3.org/2000/svg">
<path fill-rule="evenodd" clip-rule="evenodd" d="M49.9335 19.642H47.674C47.4499 19.642 47.2686 19.8729 47.2686 20.1564V22.3108C47.2686 22.595 47.4499 22.8252 47.674 22.8252H49.9335C50.1577 22.8252 50.339 22.5943 50.339 22.3108V20.1564C50.339 19.8729 50.1577 19.642 49.9335 19.642ZM21.974 19.608H18.7665V16.2828C18.7665 16.0378 18.5745 15.8394 18.3389 15.8394H16.058C15.8217 15.8394 15.6297 16.0378 15.6297 16.2828V19.608H12.4229C12.1866 19.608 11.9945 19.8071 11.9945 20.0513V22.4159C11.9945 22.6609 12.1866 22.8592 12.4229 22.8592H15.6297V26.1844C15.6297 26.4294 15.8217 26.6285 16.058 26.6285H18.3389C18.5745 26.6285 18.7665 26.4294 18.7665 26.1844V22.8592H21.974C22.2103 22.8592 22.4023 22.6601 22.4023 22.4159V20.0513C22.4023 19.8071 22.2103 19.608 21.974 19.608ZM58.3139 19.642H56.0544C55.8302 19.642 55.6489 19.8729 55.6489 20.1564V22.3108C55.6489 22.595 55.8302 22.8252 56.0544 22.8252H58.3139C58.538 22.8252 58.7193 22.5943 58.7193 22.3108V20.1564C58.7201 19.8729 58.5387 19.642 58.3139 19.642ZM54.0327 15.2977H51.9552C51.6804 15.2977 51.4591 15.4857 51.4591 15.7181V18.0605C51.4591 18.2928 51.6811 18.4816 51.9552 18.4816H54.0327C54.3075 18.4816 54.5288 18.2936 54.5288 18.0605V15.7181C54.5288 15.4857 54.3075 15.2977 54.0327 15.2977ZM54.0327 23.9864H51.9552C51.6804 23.9864 51.4591 24.1744 51.4591 24.4067V26.7491C51.4591 26.9815 51.6811 27.1695 51.9552 27.1695H54.0327C54.3075 27.1695 54.5288 26.9815 54.5288 26.7491V24.4067C54.5288 24.1744 54.3075 23.9864 54.0327 23.9864ZM69.8667 36.858C69.5362 33.6076 68.1505 19.1876 67.6094 14.0714C66.8784 7.14114 61.325 1.94274 54.6559 1.93682C51.5419 1.9346 48.7599 2.97073 46.3291 5.00746C46.0964 5.20285 45.7694 5.45892 45.5217 5.42413C43.4528 5.12069 41.3918 4.75509 39.2487 4.39466V1.1353C39.2487 1.1353 39.218 0 38.0165 0H31.9827C30.7813 0 30.7506 1.1353 30.7506 1.1353V4.39466C28.6075 4.75435 26.5458 5.11995 24.4776 5.42413C24.2299 5.45892 23.9029 5.20211 23.6702 5.00746C21.2394 2.97073 18.4574 1.9346 15.3434 1.93682C8.67425 1.94274 3.12161 7.1404 2.38916 14.0714C1.84946 19.1876 0.463801 33.6076 0.13327 36.858C-0.355031 41.6605 0.253203 48.1341 6.17349 49.6046C11.6747 50.9716 16.4806 48.6966 19.5068 44.2738C21.3515 41.5769 23.3725 39.0088 25.3443 36.4059C25.532 36.1572 25.929 35.9433 26.2302 35.9418H43.7691C44.071 35.9433 44.468 36.1572 44.6557 36.4059C46.6275 39.0088 48.6485 41.5769 50.4932 44.2738C53.5194 48.6973 58.3253 50.9716 63.8265 49.6046C69.7468 48.1341 70.355 41.6605 69.8667 36.858ZM17.0339 30.6546C12.0402 30.6546 7.99177 26.4575 7.99177 21.2799C7.99177 16.1022 12.0402 11.9051 17.0339 11.9051C22.0283 11.9051 26.0767 16.1022 26.0767 21.2799C26.0767 26.4575 22.0283 30.6546 17.0339 30.6546ZM52.9661 30.6546C47.9725 30.6546 43.924 26.4575 43.924 21.2799C43.924 16.1022 47.9725 11.9051 52.9661 11.9051C57.9605 11.9051 62.0089 16.1022 62.0089 21.2799C62.0089 26.4575 57.9605 30.6546 52.9661 30.6546Z" fill="#79C585"/>
</svg>
