<svg width="54" height="67" viewBox="0 0 54 67" fill="none" xmlns="http://www.w3.org/2000/svg">
<g clip-path="url(#clip0_58_249)">
<path d="M27 21.708C32.5919 21.708 37.125 17.2084 37.125 11.658C37.125 6.10751 32.5919 1.60797 27 1.60797C21.4081 1.60797 16.875 6.10751 16.875 11.658C16.875 17.2084 21.4081 21.708 27 21.708Z" fill="#79C585"/>
<path d="M52.0763 44.957C51.026 40.2105 48.6177 35.8658 45.1406 32.4447C44.2967 31.6041 43.3821 30.8364 42.4069 30.15C37.9654 26.8431 32.5519 25.0775 27 25.125C20.2114 25.0905 13.6845 27.7217 8.8425 32.4447C5.36542 35.8658 2.95714 40.2105 1.90688 44.957C1.72432 45.7962 1.73419 46.6655 1.93573 47.5005C2.13728 48.3355 2.52535 49.1149 3.07125 49.781C3.6366 50.4613 4.34853 51.0072 5.15459 51.3782C5.96065 51.7493 6.8403 51.9361 7.72875 51.925H46.2713C47.1623 51.9255 48.0421 51.7271 48.8454 51.3443C49.6487 50.9616 50.355 50.4044 50.9119 49.714C51.448 49.0557 51.8305 48.2877 52.0318 47.4651C52.2331 46.6426 52.2483 45.786 52.0763 44.957Z" fill="#79C585"/>
</g>
<defs>
<clipPath id="clip0_58_249">
<rect width="54" height="67" fill="white"/>
</clipPath>
</defs>
</svg>
