<svg width="51" height="51" viewBox="0 0 51 51" fill="none" xmlns="http://www.w3.org/2000/svg">
<path d="M25.2231 20.1C30.815 20.1 35.3481 15.6005 35.3481 10.05C35.3481 4.49954 30.815 0 25.2231 0C19.6312 0 15.0981 4.49954 15.0981 10.05C15.0981 15.6005 19.6312 20.1 25.2231 20.1Z" fill="#79C585"/>
<path d="M50.2994 43.349C49.2491 38.6025 46.8408 34.2579 43.3637 30.8367C42.5198 29.9961 41.6052 29.2284 40.63 28.542C36.1885 25.2352 30.775 23.4695 25.2231 23.517C18.4345 23.4825 11.9076 26.1137 7.0656 30.8367C3.58851 34.2579 1.18024 38.6025 0.129975 43.349C-0.0525769 44.1883 -0.0427158 45.0576 0.15883 45.8926C0.360375 46.7276 0.748449 47.5069 1.29435 48.173C1.8597 48.8534 2.57163 49.3992 3.37769 49.7702C4.18375 50.1413 5.0634 50.3281 5.95185 50.317H44.4944C45.3854 50.3175 46.2652 50.1191 47.0685 49.7364C47.8718 49.3536 48.5781 48.7964 49.135 48.106C49.6711 47.4477 50.0536 46.6797 50.2549 45.8572C50.4562 45.0346 50.4714 44.178 50.2994 43.349Z" fill="#79C585"/>
</svg>
