<svg width="57" height="44" viewBox="0 0 57 44" fill="none" xmlns="http://www.w3.org/2000/svg">
<path d="M15.7218 12.7085L11.648 12.2361C11.168 12.2361 11.0156 11.6034 10.8149 11.1674L9.40448 8.10329C8.99119 7.21768 7.6923 7.21768 7.33806 8.10329L5.62588 11.8229C5.5078 12.059 5.33068 12.1771 5.09451 12.2361L1.02071 12.7085C0.0170231 12.8265 -0.337221 14.0074 0.371267 14.7158L3.38234 17.4907C3.71609 17.8245 3.57054 18.3731 3.47536 18.8355L2.79193 22.155C2.61481 23.0996 3.6185 23.8671 4.50411 23.3948L8.04654 21.3874C8.28271 21.2693 8.51887 21.2693 8.75503 21.3874L12.2975 23.3948C13.1831 23.8671 14.1868 23.1586 14.0096 22.155L13.1831 18.1402C13.124 17.904 13.2421 17.6679 13.4192 17.4907L16.4303 14.7158C17.0798 14.0074 16.7255 12.7675 15.7218 12.7085Z" fill="#79C585"/>
<path d="M14.3048 27.7638H2.43768C1.61112 27.7638 0.96167 28.4132 0.96167 29.2398V42.4649C0.96167 43.2915 1.61112 43.9409 2.43768 43.9409H14.3048C15.1314 43.9409 15.7809 43.2915 15.7809 42.4649V29.2398C15.7809 28.4132 15.1314 27.7638 14.3048 27.7638Z" fill="#79C585"/>
<path d="M35.3822 5.26937L31.3084 4.79705C30.8284 4.79705 30.676 4.16433 30.4753 3.7283L29.0649 0.664207C28.6516 -0.221402 27.3527 -0.221402 26.9985 0.664207L25.2863 4.38376C25.1682 4.61993 24.9911 4.73801 24.7549 4.79705L20.6811 5.26937C19.6774 5.38745 19.3232 6.56827 20.0317 7.27675L23.0427 10.0517C23.3765 10.3854 23.2309 10.9341 23.1358 11.3964L22.4523 14.7159C22.2752 15.6605 23.2789 16.428 24.1645 15.9557L27.7069 13.9483C27.9431 13.8303 28.1793 13.8303 28.4154 13.9483L31.9579 15.9557C32.8435 16.428 33.8472 15.7196 33.67 14.7159L32.8435 10.7011C32.7844 10.4649 32.9025 10.2288 33.0796 10.0517L36.0907 7.27675C36.7402 6.56827 36.3269 5.38745 35.3822 5.26937Z" fill="#79C585"/>
<path d="M33.9654 20.3247H22.0392C21.2127 20.3247 20.5632 20.9742 20.5632 21.8007V42.4649C20.5632 43.2915 21.2127 43.9409 22.0392 43.9409H33.9064C34.733 43.9409 35.3824 43.2915 35.3824 42.4649V21.8007C35.4415 20.9742 34.733 20.3247 33.9654 20.3247Z" fill="#79C585"/>
<path d="M55.0429 16.369L50.9691 15.8967C50.4891 15.8967 50.3367 15.2639 50.136 14.8279L48.7255 11.7638C48.3122 10.8782 47.0133 10.8782 46.6591 11.7638L44.9469 15.4834C44.8288 15.7195 44.6517 15.8376 44.4156 15.8967L40.3418 16.369C39.3381 16.4871 38.9838 17.6679 39.6923 18.3764L42.7034 21.1513C43.0371 21.485 42.8916 22.0337 42.7964 22.496L42.113 25.8155C41.9359 26.7601 42.9395 27.5277 43.8252 27.0553L47.3676 25.0479C47.6038 24.9299 47.8399 24.9299 48.0761 25.0479L51.6185 27.0553C52.5041 27.5277 53.5078 26.8192 53.3307 25.8155L52.5041 21.8007C52.4451 21.5646 52.5632 21.3284 52.7403 21.1513L55.7514 18.3764C56.4008 17.7269 55.9875 16.4871 55.0429 16.369Z" fill="#79C585"/>
<path d="M53.5668 31.4834H41.6996C40.8731 31.4834 40.2236 32.1328 40.2236 32.9594V42.524C40.2236 43.3506 40.8731 44 41.6996 44H53.5668C54.3934 44 55.0428 43.3506 55.0428 42.524V32.9594C55.1019 32.1328 54.3934 31.4834 53.5668 31.4834Z" fill="#79C585"/>
</svg>
