<svg width="51" height="52" viewBox="0 0 51 52" fill="none" xmlns="http://www.w3.org/2000/svg">
<path d="M10.6872 39.1328C11.3631 39.8166 11.7821 40.7603 11.7821 41.8C11.7821 42.8398 11.3631 43.7892 10.6872 44.4729C10.0112 45.1567 9.07821 45.5805 8.04469 45.5805C7.01117 45.5805 6.07821 45.1567 5.40782 44.4729C4.73184 43.7892 4.31285 42.8455 4.31285 41.8C4.31285 40.7546 4.73184 39.8109 5.40782 39.1328C6.0838 38.449 7.01676 38.0252 8.04469 38.0252C9.07263 38.0252 10.0112 38.449 10.6872 39.1328ZM8.05028 2.31689C7.01676 2.31689 6.0838 2.74071 5.41341 3.42447C4.73743 4.10824 4.31844 5.05195 4.31844 6.09737C4.31844 7.1428 4.73743 8.0865 5.41341 8.77027C6.08939 9.45403 7.02235 9.87785 8.05028 9.87785C9.07821 9.87785 10.0168 9.45403 10.6927 8.77027C11.3687 8.0865 11.7877 7.1428 11.7877 6.09737C11.7877 5.05195 11.3687 4.10824 10.6927 3.42447C10.0168 2.74071 9.0838 2.31689 8.05028 2.31689ZM13.7486 20.236C15.2067 21.7109 16.1117 23.7509 16.1117 26C16.1117 28.2491 15.2067 30.2834 13.7486 31.764C13.5531 31.9617 13.3408 32.1539 13.1285 32.3291C13.0726 32.3969 13.0056 32.4534 12.9274 32.4929C12.9218 32.4929 12.9162 32.4986 12.9106 32.5042C11.5587 33.5384 9.8771 34.1487 8.05587 34.1487C6.23464 34.1487 4.55307 33.5384 3.20112 32.5042C3.19553 32.5042 3.18994 32.4986 3.18436 32.4929C3.10615 32.4477 3.03911 32.3912 2.98324 32.3291C2.76536 32.1539 2.55866 31.9617 2.36313 31.764C0.899441 30.2891 0 28.2491 0 26C0 23.7509 0.905028 21.7166 2.36313 20.236C3.82123 18.7611 5.83799 17.8513 8.06145 17.8513C10.2849 17.8513 12.3017 18.7611 13.7598 20.236H13.7486ZM14.7039 26C14.7039 24.1408 13.9609 22.4625 12.7598 21.2476C11.5587 20.0326 9.89386 19.281 8.05587 19.281C6.21788 19.281 4.55307 20.0326 3.35196 21.2476C2.15084 22.4625 1.40782 24.1408 1.40782 26C1.40782 27.8592 2.15084 29.5375 3.35196 30.7524L3.3743 30.775C3.8324 30.1647 4.40223 29.6449 5.05587 29.2493C5.93855 28.7181 6.96089 28.413 8.05587 28.413C9.15084 28.413 10.1732 28.7181 11.0559 29.2493C11.7095 29.6449 12.2793 30.1647 12.7374 30.775L12.7598 30.7524C13.9609 29.5375 14.7039 27.8592 14.7039 26ZM8.05028 20.1739C7.01676 20.1739 6.0838 20.5977 5.41341 21.2815C4.73743 21.9652 4.31844 22.9089 4.31844 23.9544C4.31844 24.9998 4.73743 25.9435 5.41341 26.6273C6.08939 27.311 7.02235 27.7348 8.05028 27.7348C9.07821 27.7348 10.0168 27.311 10.6927 26.6273C11.3687 25.9435 11.7877 24.9998 11.7877 23.9544C11.7877 22.9089 11.3687 21.9652 10.6927 21.2815C10.0168 20.5977 9.0838 20.1739 8.05028 20.1739ZM13.7486 38.093C15.2067 39.5679 16.1117 41.6079 16.1117 43.857C16.1117 46.1061 15.2067 48.1404 13.7486 49.6153C13.5531 49.8131 13.3408 50.0052 13.1285 50.1804C13.0726 50.2482 13.0056 50.2991 12.9274 50.3443C12.9218 50.3443 12.9162 50.3499 12.9106 50.3556C11.5587 51.3897 9.8771 52 8.05587 52C6.23464 52 4.55307 51.3897 3.20112 50.3556C3.19553 50.3556 3.18994 50.3499 3.18436 50.3443C3.10615 50.2991 3.03911 50.2426 2.98324 50.1804C2.76536 50.0052 2.55866 49.8131 2.36313 49.6153C0.899441 48.1404 0 46.1004 0 43.857C0 41.6136 0.905028 39.5736 2.36313 38.093C3.82123 36.6181 5.83799 35.7083 8.06145 35.7083C10.2849 35.7083 12.3017 36.6181 13.7598 38.093H13.7486ZM14.7039 43.857C14.7039 41.9978 13.9609 40.3195 12.7598 39.1045C11.5587 37.8896 9.89386 37.138 8.05587 37.138C6.21788 37.138 4.55307 37.8896 3.35196 39.1045C2.15084 40.3195 1.40782 41.9978 1.40782 43.857C1.40782 45.7161 2.15084 47.3945 3.35196 48.6094L3.3743 48.632C3.8324 48.0217 4.40223 47.5018 5.05587 47.1063C5.93855 46.5751 6.96089 46.2699 8.05587 46.2699C9.15084 46.2699 10.1732 46.5751 11.0559 47.1063C11.7095 47.5018 12.2793 48.0217 12.7374 48.632L12.7598 48.6094C13.9609 47.3945 14.7039 45.7161 14.7039 43.857ZM39.162 6.44773H36.3464L35.486 3.75223C35.419 3.53749 35.257 3.36231 35.0279 3.28885C34.6592 3.17018 34.2626 3.37361 34.1453 3.74658L33.2793 6.45338H30.514C30.2793 6.43078 30.0391 6.53249 29.8939 6.74158C29.6648 7.05803 29.7374 7.50446 30.0503 7.73614L32.3296 9.40317L31.4525 12.11C31.3855 12.3191 31.4134 12.5564 31.5531 12.7485C31.7821 13.065 32.2179 13.1384 32.5363 12.9068L34.8101 11.2284L37.0391 12.8729C37.2179 13.0254 37.4749 13.0876 37.7151 13.0085C38.0838 12.8898 38.2849 12.4829 38.1676 12.11L37.2905 9.40317L39.5698 7.73614C39.743 7.60617 39.8603 7.39709 39.8603 7.15975C39.8603 6.76418 39.5475 6.44773 39.1564 6.44773H39.162ZM13.7486 2.3847C15.2067 3.8596 16.1117 5.89959 16.1117 8.14301C16.1117 10.3864 15.2067 12.4264 13.7486 13.907C13.5531 14.1048 13.3408 14.2969 13.1285 14.4721C13.0726 14.5399 13.0056 14.5964 12.9274 14.6359C12.9218 14.6359 12.9162 14.6416 12.9106 14.6473C11.5587 15.6814 9.8771 16.2917 8.05587 16.2917C6.23464 16.2917 4.55307 15.6814 3.20112 14.6473C3.19553 14.6473 3.18994 14.6416 3.18436 14.6359C3.10615 14.5907 3.03911 14.5342 2.98324 14.4721C2.76536 14.2969 2.55866 14.1048 2.36313 13.907C0.899441 12.4321 0 10.3921 0 8.14301C0 5.89394 0.905028 3.8596 2.36313 2.3847C3.82123 0.909802 5.83799 0 8.06145 0C10.2849 0 12.3017 0.909802 13.7598 2.3847H13.7486ZM14.7039 8.14301C14.7039 6.28385 13.9609 4.60552 12.7598 3.39057C11.5587 2.17561 9.89386 1.42404 8.05587 1.42404C6.21788 1.42404 4.55307 2.17561 3.35196 3.39057C2.15084 4.60552 1.40782 6.28385 1.40782 8.14301C1.40782 10.0022 2.15084 11.6805 3.35196 12.8955L3.3743 12.9181C3.8324 12.3078 4.40223 11.7879 5.05587 11.3923C5.93855 10.8611 6.96089 10.556 8.05587 10.556C9.15084 10.556 10.1732 10.8611 11.0559 11.3923C11.7095 11.7879 12.2793 12.3078 12.7374 12.9181L12.7598 12.8955C13.9609 11.6805 14.7039 10.0022 14.7039 8.14301ZM51 7.1541C51 6.75853 50.6871 6.44208 50.2961 6.44208H47.4804L46.6201 3.74658C46.5531 3.53184 46.3911 3.35666 46.162 3.2832C45.7933 3.16453 45.3966 3.36796 45.2793 3.74093L44.4134 6.44773H41.648C41.4134 6.42512 41.1732 6.52684 41.0279 6.73593C40.7989 7.05238 40.8715 7.4988 41.1844 7.73049L43.4637 9.39752L42.5866 12.1043C42.5196 12.3134 42.5475 12.5507 42.6871 12.7429C42.9162 13.0593 43.352 13.1328 43.6704 12.9011L45.9441 11.2228L48.1732 12.8672C48.352 13.0198 48.6033 13.0819 48.8492 13.0028C49.2179 12.8842 49.419 12.4773 49.3017 12.1043L48.4246 9.39752L50.7039 7.73049C50.8827 7.60052 50.9944 7.39144 50.9944 7.1541H51ZM39.162 24.2991H36.3464L35.486 21.6036C35.419 21.3888 35.257 21.2136 35.0279 21.1402C34.6592 21.0215 34.2626 21.2249 34.1453 21.5979L33.2793 24.3047H30.514C30.2793 24.2821 30.0391 24.3838 29.8939 24.5929C29.6648 24.9094 29.7374 25.3558 30.0503 25.5875L32.3296 27.2545L31.4525 29.9613C31.3855 30.1704 31.4134 30.4077 31.5531 30.5999C31.7821 30.9163 32.2179 30.9898 32.5363 30.7581L34.8101 29.0798L37.0391 30.7242C37.2179 30.8768 37.4749 30.9389 37.7151 30.8598C38.0838 30.7355 38.2849 30.3343 38.1676 29.9613L37.2905 27.2545L39.5698 25.5875C39.743 25.4575 39.8603 25.2484 39.8603 25.0111C39.8603 24.6212 39.5475 24.2991 39.1564 24.2991H39.162ZM28.2626 42.1561H25.4469L24.5866 39.4606C24.5196 39.2458 24.3575 39.0706 24.1285 38.9972C23.7598 38.8785 23.3631 39.0819 23.2458 39.4549L22.3799 42.1617H19.6145C19.3799 42.1391 19.1397 42.2408 18.9944 42.4499C18.7654 42.7664 18.838 43.2128 19.1508 43.4445L21.4302 45.1115L20.5531 47.8183C20.486 48.0274 20.514 48.2647 20.6536 48.4569C20.8827 48.7733 21.3184 48.8411 21.6369 48.6151L23.9106 46.9368L26.1397 48.5812C26.3184 48.7338 26.5698 48.7959 26.8156 48.7168C27.1844 48.5925 27.3911 48.1913 27.2682 47.8183L26.3911 45.1115L28.6704 43.4445C28.8436 43.3145 28.9609 43.1054 28.9609 42.8681C28.9609 42.4782 28.648 42.1561 28.257 42.1561H28.2626ZM28.2626 24.2991H25.4469L24.5866 21.6036C24.5196 21.3888 24.3575 21.2136 24.1285 21.1402C23.7598 21.0215 23.3631 21.2249 23.2458 21.5979L22.3799 24.3047H19.6145C19.3799 24.2821 19.1397 24.3838 18.9944 24.5929C18.7654 24.9094 18.838 25.3558 19.1508 25.5875L21.4302 27.2545L20.5531 29.9613C20.486 30.1704 20.514 30.4077 20.6536 30.5999C20.8827 30.9163 21.3184 30.9898 21.6369 30.7581L23.9106 29.0798L26.1397 30.7242C26.3184 30.8768 26.5698 30.9389 26.8156 30.8598C27.1844 30.7355 27.3911 30.3343 27.2682 29.9613L26.3911 27.2545L28.6704 25.5875C28.8436 25.4575 28.9609 25.2484 28.9609 25.0111C28.9609 24.6212 28.648 24.2991 28.257 24.2991H28.2626ZM28.2626 6.44208H25.4469L24.5866 3.74658C24.5196 3.53184 24.3575 3.35666 24.1285 3.2832C23.7598 3.16453 23.3631 3.36796 23.2458 3.74093L22.3799 6.44773H19.6145C19.3799 6.42512 19.1397 6.52684 18.9944 6.73593C18.7654 7.05238 18.838 7.4988 19.1508 7.73049L21.4302 9.39752L20.5531 12.1043C20.486 12.3134 20.514 12.5507 20.6536 12.7429C20.8827 13.0593 21.3184 13.1328 21.6369 12.9011L23.9106 11.2228L26.1397 12.8672C26.3184 13.0198 26.5698 13.0819 26.8156 13.0028C27.1844 12.8842 27.3911 12.4773 27.2682 12.1043L26.3911 9.39752L28.6704 7.73049C28.8436 7.60052 28.9609 7.39144 28.9609 7.1541C28.9609 6.75853 28.648 6.44208 28.257 6.44208H28.2626Z" fill="#79C585"/>
</svg>
