<svg width="19" height="24" viewBox="0 0 19 24" fill="none" xmlns="http://www.w3.org/2000/svg">
<path d="M1.97017 23.4375H17.0298C18.1094 23.4375 19 22.6196 19 21.5717V11.3481C19 10.3258 18.1364 9.48235 17.0298 9.48235H16.9759V7.02869C16.9759 3.14374 13.6563 0 9.55398 0C5.45171 0 2.1321 3.14374 2.1321 7.02869V9.48235H1.97017C0.890625 9.48235 0 10.3002 0 11.3481V21.5717C0 22.5941 0.890625 23.4375 1.97017 23.4375ZM10.6605 16.92C10.4986 17.0222 10.4716 17.1245 10.4716 17.3034C10.4716 18.0446 10.4716 18.8113 10.4716 19.5525C10.4986 19.8593 10.3097 20.166 10.0398 20.3193C9.33807 20.6516 8.66335 20.1915 8.66335 19.5525C8.66335 18.8113 8.66335 18.0446 8.66335 17.3034C8.66335 17.15 8.63636 17.0478 8.47443 16.9455C7.74574 16.4344 7.52983 15.5909 7.88068 14.8497C8.23153 14.1085 9.06818 13.6996 9.87784 13.8529C10.7685 14.0318 11.3892 14.6964 11.3892 15.5398C11.4162 16.1021 11.1463 16.5877 10.6605 16.92ZM5.39773 7.05425C5.39773 4.88175 7.25994 3.09263 9.58097 3.09263C11.902 3.09263 13.7642 4.85619 13.7642 7.05425V9.50791H5.39773V7.05425Z" fill="#79C585"/>
</svg>
