<svg width="19" height="25" viewBox="0 0 19 25" fill="none" xmlns="http://www.w3.org/2000/svg">
<path d="M1.97017 25H17.0298C18.1094 25 19 24.1276 19 23.0098V12.1047C19 11.0142 18.1364 10.1145 17.0298 10.1145H16.9759V7.49727C16.9759 3.35333 13.6563 0 9.55398 0C5.45171 0 2.1321 3.35333 2.1321 7.49727V10.1145H1.97017C0.890625 10.1145 0 10.9869 0 12.1047V23.0098C0 24.1003 0.890625 25 1.97017 25ZM10.6605 18.048C10.4986 18.157 10.4716 18.2661 10.4716 18.4569C10.4716 19.2475 10.4716 20.0654 10.4716 20.8561C10.4986 21.1832 10.3097 21.5104 10.0398 21.6739C9.33807 22.0284 8.66335 21.5376 8.66335 20.8561C8.66335 20.0654 8.66335 19.2475 8.66335 18.4569C8.66335 18.2933 8.63636 18.1843 8.47443 18.0752C7.74574 17.53 7.52983 16.6303 7.88068 15.8397C8.23153 15.0491 9.06818 14.6129 9.87784 14.7764C10.7685 14.9673 11.3892 15.6761 11.3892 16.5758C11.4162 17.1756 11.1463 17.6936 10.6605 18.048ZM5.39773 7.52454C5.39773 5.2072 7.25994 3.2988 9.58097 3.2988C11.902 3.2988 13.7642 5.17993 13.7642 7.52454V10.1418H5.39773V7.52454Z" fill="#79C585"/>
</svg>
