<svg width="192" height="47" viewBox="0 0 192 47" fill="none" xmlns="http://www.w3.org/2000/svg">
<path d="M82.3068 20.0795C82.0871 19.3902 81.7917 18.7727 81.4205 18.2273C81.0568 17.6742 80.6212 17.2045 80.1136 16.8182C79.6061 16.4242 79.0265 16.125 78.375 15.9205C77.7311 15.7159 77.0227 15.6136 76.25 15.6136C74.9394 15.6136 73.7576 15.9508 72.7045 16.625C71.6515 17.2992 70.8182 18.2879 70.2045 19.5909C69.5985 20.8864 69.2955 22.4735 69.2955 24.3523C69.2955 26.2386 69.6023 27.8333 70.2159 29.1364C70.8295 30.4394 71.6705 31.428 72.7386 32.1023C73.8068 32.7765 75.0227 33.1136 76.3864 33.1136C77.6515 33.1136 78.7538 32.8561 79.6932 32.3409C80.6402 31.8258 81.3712 31.0985 81.8864 30.1591C82.4091 29.2121 82.6705 28.0985 82.6705 26.8182L83.5795 26.9886H76.9205V24.0909H86.0682V26.7386C86.0682 28.6932 85.6515 30.3902 84.8182 31.8295C83.9924 33.2614 82.8485 34.3674 81.3864 35.1477C79.9318 35.928 78.2652 36.3182 76.3864 36.3182C74.2803 36.3182 72.4318 35.8333 70.8409 34.8636C69.2576 33.8939 68.0227 32.5189 67.1364 30.7386C66.25 28.9508 65.8068 26.8295 65.8068 24.375C65.8068 22.5189 66.0644 20.8523 66.5795 19.375C67.0947 17.8977 67.8182 16.6439 68.75 15.6136C69.6894 14.5758 70.7917 13.7841 72.0568 13.2386C73.3295 12.6856 74.7197 12.4091 76.2273 12.4091C77.4848 12.4091 78.6553 12.5947 79.7386 12.9659C80.8295 13.3371 81.7992 13.8636 82.6477 14.5455C83.5038 15.2273 84.2121 16.0379 84.7727 16.9773C85.3333 17.9091 85.7121 18.9432 85.9091 20.0795H82.3068ZM89.5488 36V18.5455H92.8329V21.3182H93.0147C93.3329 20.3788 93.8935 19.6402 94.6966 19.1023C95.5072 18.5568 96.4238 18.2841 97.4466 18.2841C97.6587 18.2841 97.9087 18.2917 98.1966 18.3068C98.492 18.322 98.7231 18.3409 98.8897 18.3636V21.6136C98.7534 21.5758 98.511 21.5341 98.1625 21.4886C97.814 21.4356 97.4655 21.4091 97.117 21.4091C96.314 21.4091 95.5981 21.5795 94.9693 21.9205C94.3481 22.2538 93.8557 22.7197 93.492 23.3182C93.1284 23.9091 92.9466 24.5833 92.9466 25.3409V36H89.5488ZM108.024 36.3523C106.304 36.3523 104.823 35.9848 103.581 35.25C102.346 34.5076 101.391 33.4659 100.717 32.125C100.05 30.7765 99.717 29.197 99.717 27.3864C99.717 25.5985 100.05 24.0227 100.717 22.6591C101.391 21.2955 102.331 20.2311 103.535 19.4659C104.747 18.7008 106.164 18.3182 107.785 18.3182C108.77 18.3182 109.725 18.4811 110.649 18.8068C111.573 19.1326 112.403 19.6439 113.137 20.3409C113.872 21.0379 114.452 21.9432 114.876 23.0568C115.3 24.1629 115.512 25.5076 115.512 27.0909V28.2955H101.637V25.75H112.183C112.183 24.8561 112.001 24.0644 111.637 23.375C111.274 22.678 110.762 22.1288 110.103 21.7273C109.452 21.3258 108.687 21.125 107.808 21.125C106.853 21.125 106.02 21.3598 105.308 21.8295C104.603 22.2917 104.058 22.8977 103.672 23.6477C103.293 24.3902 103.103 25.197 103.103 26.0682V28.0568C103.103 29.2235 103.308 30.2159 103.717 31.0341C104.134 31.8523 104.713 32.4773 105.456 32.9091C106.198 33.3333 107.065 33.5455 108.058 33.5455C108.702 33.5455 109.289 33.4545 109.819 33.2727C110.35 33.0833 110.808 32.803 111.194 32.4318C111.581 32.0606 111.876 31.6023 112.081 31.0568L115.297 31.6364C115.039 32.5833 114.577 33.4129 113.91 34.125C113.251 34.8295 112.422 35.3788 111.422 35.7727C110.429 36.1591 109.297 36.3523 108.024 36.3523ZM126.101 36.3523C124.381 36.3523 122.9 35.9848 121.658 35.25C120.423 34.5076 119.468 33.4659 118.794 32.125C118.128 30.7765 117.794 29.197 117.794 27.3864C117.794 25.5985 118.128 24.0227 118.794 22.6591C119.468 21.2955 120.408 20.2311 121.612 19.4659C122.825 18.7008 124.241 18.3182 125.862 18.3182C126.847 18.3182 127.802 18.4811 128.726 18.8068C129.65 19.1326 130.48 19.6439 131.215 20.3409C131.95 21.0379 132.529 21.9432 132.953 23.0568C133.378 24.1629 133.59 25.5076 133.59 27.0909V28.2955H119.715V25.75H130.26C130.26 24.8561 130.078 24.0644 129.715 23.375C129.351 22.678 128.84 22.1288 128.181 21.7273C127.529 21.3258 126.764 21.125 125.885 21.125C124.931 21.125 124.097 21.3598 123.385 21.8295C122.681 22.2917 122.135 22.8977 121.749 23.6477C121.37 24.3902 121.181 25.197 121.181 26.0682V28.0568C121.181 29.2235 121.385 30.2159 121.794 31.0341C122.211 31.8523 122.79 32.4773 123.533 32.9091C124.275 33.3333 125.143 33.5455 126.135 33.5455C126.779 33.5455 127.366 33.4545 127.897 33.2727C128.427 33.0833 128.885 32.803 129.272 32.4318C129.658 32.0606 129.953 31.6023 130.158 31.0568L133.374 31.6364C133.116 32.5833 132.654 33.4129 131.987 34.125C131.328 34.8295 130.499 35.3788 129.499 35.7727C128.506 36.1591 127.374 36.3523 126.101 36.3523ZM140.053 25.6364V36H136.656V18.5455H139.917V21.3864H140.133C140.534 20.4621 141.163 19.7197 142.019 19.1591C142.883 18.5985 143.97 18.3182 145.281 18.3182C146.47 18.3182 147.512 18.5682 148.406 19.0682C149.3 19.5606 149.993 20.2955 150.485 21.2727C150.978 22.25 151.224 23.4583 151.224 24.8977V36H147.826V25.3068C147.826 24.0417 147.496 23.053 146.837 22.3409C146.178 21.6212 145.273 21.2614 144.121 21.2614C143.334 21.2614 142.633 21.4318 142.019 21.7727C141.413 22.1136 140.932 22.6136 140.576 23.2727C140.228 23.9242 140.053 24.7121 140.053 25.6364ZM158.861 12.7273V36H155.349V12.7273H158.861ZM171.827 28.4545H175.282L177.714 31.625L178.861 33.0341L182.736 38.0909H179.145L176.554 34.7159L175.668 33.4886L171.827 28.4545ZM183.486 24.3636C183.486 26.8485 183.032 28.9848 182.123 30.7727C181.214 32.553 179.967 33.9242 178.384 34.8864C176.808 35.8409 175.017 36.3182 173.009 36.3182C170.994 36.3182 169.195 35.8409 167.611 34.8864C166.035 33.9242 164.793 32.5492 163.884 30.7614C162.975 28.9735 162.52 26.8409 162.52 24.3636C162.52 21.8788 162.975 19.7462 163.884 17.9659C164.793 16.178 166.035 14.8068 167.611 13.8523C169.195 12.8902 170.994 12.4091 173.009 12.4091C175.017 12.4091 176.808 12.8902 178.384 13.8523C179.967 14.8068 181.214 16.178 182.123 17.9659C183.032 19.7462 183.486 21.8788 183.486 24.3636ZM180.009 24.3636C180.009 22.4697 179.702 20.875 179.089 19.5795C178.482 18.2765 177.649 17.2917 176.589 16.625C175.535 15.9508 174.342 15.6136 173.009 15.6136C171.668 15.6136 170.471 15.9508 169.418 16.625C168.365 17.2917 167.532 18.2765 166.918 19.5795C166.312 20.875 166.009 22.4697 166.009 24.3636C166.009 26.2576 166.312 27.8561 166.918 29.1591C167.532 30.4545 168.365 31.4394 169.418 32.1136C170.471 32.7803 171.668 33.1136 173.009 33.1136C174.342 33.1136 175.535 32.7803 176.589 32.1136C177.649 31.4394 178.482 30.4545 179.089 29.1591C179.702 27.8561 180.009 26.2576 180.009 24.3636Z" fill="white"/>
<path d="M45.9419 12.7593C42.0058 16.3679 38.3167 16.3135 35.5777 16.605C32.8271 16.8976 23.6429 16.8982 19.3033 23.1893C14.9643 29.4805 18.2059 33.0128 18.2059 33.0128C18.393 33.2577 18.4798 33.343 18.577 33.4211C18.7005 32.3281 19.0747 31.0391 19.8695 29.5468C22.9258 23.8021 30.7539 23.0506 33.0692 22.5749C35.2476 22.1267 38.1798 21.8728 41.016 18.9662C38.3864 22.3468 35.3711 22.8158 33.1732 23.4336C30.9117 24.0706 23.1868 25.3669 20.6453 31.3183C20.1776 32.4124 19.9135 33.3885 19.7875 34.2569C19.5729 35.3285 19.436 36.4002 19.3767 37.4724C18.1539 34.4591 16.3717 31.7715 13.9824 29.3693C14.2863 28.2617 14.4556 26.8227 14.3175 24.944C13.8479 18.5663 8.5081 15.1205 7.0041 13.8674C5.54289 12.6503 3.44951 11.3411 2.31662 7.37799C3.71058 10.9502 5.79356 12.0325 7.27983 13.0822C8.86026 14.1971 14.4025 17.1554 15.2963 23.4859C15.5286 25.1299 15.5017 26.461 15.3373 27.5343C15.4265 27.4877 15.5103 27.4316 15.7035 27.2529C15.7035 27.2529 18.8943 24.8299 17.1916 17.6131C15.4889 10.3969 8.78017 7.76273 6.83903 6.69613C4.90583 5.63403 2.19985 4.62809 0.16516 0.0741393L0.136425 0C-0.0384309 4.15405 -1.44767 21.3667 10.7672 27.8977C15.4944 31.7957 18.3716 36.5434 19.5778 42.3358C19.5833 42.3633 19.6041 42.3802 19.6176 42.4026C19.7955 43.5709 20.0474 44.7414 20.3855 45.9153C20.4521 46.1461 21.6333 45.8569 21.5667 45.6243C20.5475 42.0915 20.2296 38.6075 20.7572 35.1061C20.8911 35.1432 21.0195 35.187 21.1375 35.2403C21.1375 35.2403 21.1387 35.2375 21.1393 35.2364C22.7289 35.643 23.7988 35.5352 23.7988 35.5352C41.3834 34.0839 44.9362 16.7853 46 12.698L45.9419 12.7593Z" fill="white"/>
</svg>
