<svg width="46" height="46" viewBox="0 0 46 46" fill="none" xmlns="http://www.w3.org/2000/svg">
<path d="M45.9419 12.7593C42.0058 16.3679 38.3167 16.3135 35.5777 16.605C32.8271 16.8976 23.6429 16.8982 19.3033 23.1893C14.9643 29.4805 18.2059 33.0128 18.2059 33.0128C18.393 33.2577 18.4798 33.343 18.577 33.4211C18.7005 32.3281 19.0747 31.0391 19.8695 29.5468C22.9258 23.8021 30.7539 23.0506 33.0692 22.5749C35.2476 22.1267 38.1798 21.8728 41.016 18.9662C38.3864 22.3468 35.3711 22.8158 33.1732 23.4336C30.9117 24.0706 23.1868 25.3669 20.6453 31.3183C20.1776 32.4124 19.9135 33.3885 19.7875 34.2569C19.5729 35.3285 19.436 36.4002 19.3767 37.4724C18.1539 34.4591 16.3717 31.7715 13.9824 29.3693C14.2863 28.2617 14.4556 26.8227 14.3175 24.944C13.8479 18.5663 8.5081 15.1205 7.0041 13.8674C5.54289 12.6503 3.44951 11.3411 2.31662 7.37799C3.71058 10.9502 5.79356 12.0325 7.27983 13.0822C8.86026 14.1971 14.4025 17.1554 15.2963 23.4859C15.5286 25.1299 15.5017 26.461 15.3373 27.5343C15.4265 27.4877 15.5103 27.4316 15.7035 27.2529C15.7035 27.2529 18.8943 24.8299 17.1916 17.6131C15.4889 10.3969 8.78017 7.76273 6.83903 6.69613C4.90583 5.63403 2.19985 4.62809 0.16516 0.0741393L0.136425 0C-0.0384309 4.15405 -1.44767 21.3667 10.7672 27.8977C15.4944 31.7957 18.3716 36.5434 19.5778 42.3358C19.5833 42.3633 19.6041 42.3802 19.6176 42.4026C19.7955 43.5709 20.0474 44.7414 20.3855 45.9153C20.4521 46.1461 21.6333 45.8569 21.5667 45.6243C20.5475 42.0915 20.2296 38.6075 20.7572 35.1061C20.8911 35.1432 21.0195 35.187 21.1375 35.2403C21.1375 35.2403 21.1387 35.2375 21.1393 35.2364C22.7289 35.643 23.7988 35.5352 23.7988 35.5352C41.3834 34.0839 44.9362 16.7853 46 12.698L45.9419 12.7593Z" fill="white"/>
</svg>
