<svg width="24" height="25" viewBox="0 0 24 25" fill="none" xmlns="http://www.w3.org/2000/svg">
<path d="M4.08272 21.874C4.10674 21.9073 4.13075 21.924 4.15477 21.949C4.17879 21.974 4.2028 21.9907 4.22682 22.0073C4.25083 22.0323 4.27485 22.049 4.29887 22.0657C6.38826 23.8996 9.06204 25 12 25C14.938 25 17.6278 23.8996 19.7091 22.0574C19.7412 22.0407 19.7732 22.0073 19.8052 21.9823C19.8212 21.974 19.8372 21.9573 19.8532 21.949C22.3909 19.6482 24 16.2638 24 12.4958C24 5.6102 18.6204 0 12 0C5.37959 0 0 5.6102 0 12.4958C0 16.2387 1.57705 19.5899 4.08272 21.874ZM12 5.86862C14.1134 5.86862 15.8266 7.65255 15.8266 9.85328C15.8266 12.054 14.1134 13.8379 12 13.8379C9.88659 13.8379 8.17345 12.0457 8.17345 9.85328C8.17345 7.66089 9.88659 5.86862 12 5.86862ZM9.43029 15.6802C10.2789 15.5635 11.1354 15.5052 12 15.5052C12.8566 15.5052 13.7131 15.5635 14.5697 15.6802C17.0594 16.022 18.8045 18.3144 18.5243 20.907V20.932C16.7392 22.4325 14.4656 23.3328 12 23.3328C9.53436 23.3328 7.25284 22.4241 5.46765 20.9236V20.8903C5.19546 18.3144 6.94063 16.022 9.43029 15.6802Z" fill="#79C585"/>
</svg>
