<svg width="24" height="24" viewBox="0 0 24 24" fill="none" xmlns="http://www.w3.org/2000/svg">
<path d="M4.08272 20.5068C4.10674 20.5381 4.13075 20.5537 4.15477 20.5772C4.17879 20.6006 4.2028 20.6162 4.22682 20.6319C4.25083 20.6553 4.27485 20.671 4.29887 20.6866C6.38826 22.4059 9.06204 23.4375 12 23.4375C14.938 23.4375 17.6278 22.4059 19.7091 20.6788C19.7412 20.6631 19.7732 20.6319 19.8052 20.6084C19.8212 20.6006 19.8372 20.585 19.8532 20.5772C22.3909 18.4202 24 15.2473 24 11.7148C24 5.25957 18.6204 0 12 0C5.37959 0 0 5.25957 0 11.7148C0 15.2238 1.57705 18.3655 4.08272 20.5068ZM12 5.50183C14.1134 5.50183 15.8266 7.17427 15.8266 9.23745C15.8266 11.3006 14.1134 12.9731 12 12.9731C9.88659 12.9731 8.17345 11.2928 8.17345 9.23745C8.17345 7.18208 9.88659 5.50183 12 5.50183ZM9.43029 14.7002C10.2789 14.5908 11.1354 14.5361 12 14.5361C12.8566 14.5361 13.7131 14.5908 14.5697 14.7002C17.0594 15.0206 18.8045 17.1698 18.5243 19.6003V19.6237C16.7392 21.0304 14.4656 21.8745 12 21.8745C9.53436 21.8745 7.25284 21.0226 5.46765 19.6159V19.5847C5.19546 17.1698 6.94063 15.0206 9.43029 14.7002Z" fill="#79C585"/>
</svg>
