<svg width="71" height="46" viewBox="0 0 71 46" fill="none" xmlns="http://www.w3.org/2000/svg">
<path fill-rule="evenodd" clip-rule="evenodd" d="M0 39.5217C0 19.917 15.9073 4 35.5 4C55.0927 4 71 19.917 71 39.5217C71 40.8897 69.8904 42 68.5233 42H55.314C53.9468 42 52.8372 40.8897 52.8372 39.5217C52.8372 29.9457 45.0701 22.1739 35.5 22.1739C25.9299 22.1739 18.1628 29.9457 18.1628 39.5217C18.1628 40.8897 17.0532 42 15.686 42H2.47674C1.10958 42 0 40.8897 0 39.5217ZM5.05256 37.0435H13.3447C14.5798 25.8979 24.0343 17.2174 35.5 17.2174C46.9657 17.2174 56.4202 25.8979 57.6553 37.0435H65.9474C64.686 21.3313 51.5262 8.95652 35.5 8.95652C19.4738 8.95652 6.31405 21.3313 5.05256 37.0435Z" fill="#79C585"/>
<path fill-rule="evenodd" clip-rule="evenodd" d="M38 15.5455C38 16.9004 36.88 18 35.5 18C34.12 18 33 16.9004 33 15.5455V2.45455C33 1.09964 34.12 0 35.5 0C36.88 0 38 1.09964 38 2.45455V15.5455Z" fill="#79C585"/>
<path fill-rule="evenodd" clip-rule="evenodd" d="M52.1597 22.2858C51.2106 23.2381 49.6634 23.2381 48.7143 22.2858C47.7619 21.3335 47.7619 19.7896 48.7143 18.8373L56.8403 10.7118C57.7894 9.76274 59.3366 9.76274 60.2857 10.7118C61.2381 11.6641 61.2381 13.2079 60.2857 14.1603L52.1597 22.2858Z" fill="#79C585"/>
<path fill-rule="evenodd" clip-rule="evenodd" d="M23.2857 18.8373C24.2381 19.7896 24.2381 21.3335 23.2857 22.2858C22.3366 23.2381 20.7894 23.2381 19.8403 22.2858L11.7143 14.1603C10.7619 13.2079 10.7619 11.6641 11.7143 10.7118C12.6634 9.76274 14.2106 9.76274 15.1597 10.7118L23.2857 18.8373Z" fill="#79C585"/>
<path fill-rule="evenodd" clip-rule="evenodd" d="M50.9389 21.0489C50.9389 21.0489 49.0138 29.5608 47.1317 35.7168C46.2338 38.6517 45.2861 41.0808 44.5737 42.0991C41.6909 46.2352 36.005 47.2435 31.883 44.3452C27.7643 41.4502 26.7637 35.7368 29.6464 31.6006C30.3555 30.5857 32.3038 28.8587 34.7459 27.0053C39.8586 23.1253 47.1682 18.3969 47.1682 18.3969C48.0164 17.8478 49.1132 17.8711 49.9382 18.4501C50.7666 19.0324 51.1609 20.0573 50.9389 21.0489ZM44.6135 26.0902C42.4166 27.5876 39.8818 29.3645 37.7413 30.9884C35.8526 32.4225 34.2687 33.677 33.7187 34.4657C32.4065 36.3457 32.8638 38.9412 34.7359 40.2556C36.608 41.5733 39.1926 41.1174 40.5047 39.2374C41.0548 38.4487 41.6843 36.5254 42.3802 34.2494C43.1688 31.6738 43.964 28.6757 44.6135 26.0902Z" fill="#79C585"/>
</svg>
